<svg width="55" height="55" viewBox="0 0 55 55" fill="none" xmlns="http://www.w3.org/2000/svg">
<g filter="url(#filter0_d)">
<circle cx="26.5" cy="24.5" r="24.5" fill="#59F056"/>
</g>
<path d="M26.695 16.6363C22.2485 16.6363 18.7053 20.249 18.7053 24.626C18.7053 29.0725 22.2485 32.6158 26.695 32.6158C31.072 32.6158 34.6847 29.0725 34.6847 24.626C34.6847 20.249 31.072 16.6363 26.695 16.6363ZM26.695 29.8367C23.8465 29.8367 21.4843 27.544 21.4843 24.626C21.4843 21.7775 23.777 19.4848 26.695 19.4848C29.5435 19.4848 31.8362 21.7775 31.8362 24.626C31.8362 27.544 29.5435 29.8367 26.695 29.8367ZM36.8385 16.3584C36.8385 15.3162 36.0048 14.4825 34.9626 14.4825C33.9205 14.4825 33.0868 15.3162 33.0868 16.3584C33.0868 17.4005 33.9205 18.2342 34.9626 18.2342C36.0048 18.2342 36.8385 17.4005 36.8385 16.3584ZM42.1187 18.2342C41.9797 15.7331 41.4239 13.5099 39.6175 11.7035C37.8112 9.89712 35.5879 9.34131 33.0868 9.20236C30.5162 9.06341 22.8044 9.06341 20.2337 9.20236C17.7326 9.34131 15.5789 9.89712 13.703 11.7035C11.8966 13.5099 11.3408 15.7331 11.2019 18.2342C11.0629 20.8048 11.0629 28.5167 11.2019 31.0873C11.3408 33.5884 11.8966 35.7422 13.703 37.618C15.5789 39.4244 17.7326 39.9802 20.2337 40.1192C22.8044 40.2581 30.5162 40.2581 33.0868 40.1192C35.5879 39.9802 37.8112 39.4244 39.6175 37.618C41.4239 35.7422 41.9797 33.5884 42.1187 31.0873C42.2576 28.5167 42.2576 20.8048 42.1187 18.2342ZM38.7838 33.7968C38.2975 35.1864 37.1859 36.2285 35.8658 36.7843C33.7816 37.618 28.9182 37.4096 26.695 37.4096C24.4023 37.4096 19.539 37.618 17.5242 36.7843C16.1347 36.2285 15.0925 35.1864 14.5367 33.7968C13.703 31.782 13.9114 26.9187 13.9114 24.626C13.9114 22.4028 13.703 17.5395 14.5367 15.4552C15.0925 14.1352 16.1347 13.093 17.5242 12.5372C19.539 11.7035 24.4023 11.9119 26.695 11.9119C28.9182 11.9119 33.7816 11.7035 35.8658 12.5372C37.1859 13.0235 38.228 14.1352 38.7838 15.4552C39.6175 17.5395 39.4091 22.4028 39.4091 24.626C39.4091 26.9187 39.6175 31.782 38.7838 33.7968Z" fill="white"/>
<defs>
<filter id="filter0_d" x="0" y="0" width="55" height="55" filterUnits="userSpaceOnUse" color-interpolation-filters="sRGB">
<feFlood flood-opacity="0" result="BackgroundImageFix"/>
<feColorMatrix in="SourceAlpha" type="matrix" values="0 0 0 0 0 0 0 0 0 0 0 0 0 0 0 0 0 0 127 0"/>
<feOffset dx="1" dy="3"/>
<feGaussianBlur stdDeviation="1.5"/>
<feColorMatrix type="matrix" values="0 0 0 0 0 0 0 0 0 0 0 0 0 0 0 0 0 0 0.25 0"/>
<feBlend mode="normal" in2="BackgroundImageFix" result="effect1_dropShadow"/>
<feBlend mode="normal" in="SourceGraphic" in2="effect1_dropShadow" result="shape"/>
</filter>
</defs>
</svg>
