<?xml version="1.0" encoding="utf-8"?>
<!-- Generator: Adobe Illustrator 25.0.1, SVG Export Plug-In . SVG Version: 6.00 Build 0)  -->
<svg version="1.1" id="Layer_1" xmlns="http://www.w3.org/2000/svg" xmlns:xlink="http://www.w3.org/1999/xlink" x="0px" y="0px"
	 viewBox="0 0 141.3 39.5" style="enable-background:new 0 0 141.3 39.5;" xml:space="preserve">
<style type="text/css">
	.st0{fill:#59F056;}
</style>
<path class="st0" d="M0,9.2h14.3c6.4,0,10.5,3.3,10.5,8.1c0,2.7-1.7,5.2-4.3,6.1v0.4c3.1,0.9,5.1,3.7,5.1,6.8
	c0,4.9-4.3,8.1-10.8,8.1H0V9.2z M13.1,21.3c2.7,0,4.6-1.4,4.6-3.5s-1.9-3.4-4.6-3.4H6.9v6.9L13.1,21.3z M13.4,33.5
	c3,0,5.1-1.6,5.1-3.8S16.3,26,13.4,26H6.9v7.5H13.4z"/>
<rect x="28.9" y="17.5" class="st0" width="6.1" height="21.2"/>
<path class="st0" d="M39.7,17.5h6v2.9h0.5c0.9-2,3-3.3,5.2-3.3c0.8,0,1.7,0.2,2.4,0.5v5.5c-1.1-0.5-2.3-0.8-3.5-0.8
	c-2.7,0-4.5,2.2-4.5,5.5v10.9h-6.1V17.5z"/>
<path class="st0" d="M54.5,28.6c0-6.5,4.2-10.8,10-10.8c2.6-0.1,5.2,1.1,6.8,3.2h0.4V9.2h6.1v29.6h-6.1v-2.6h-0.4
	c-1.6,2.1-4.1,3.3-6.7,3.2C58.7,39.4,54.5,35,54.5,28.6z M71.8,28.6c0-3.1-2.5-5.6-5.6-5.6c-3.1,0-5.6,2.5-5.6,5.6c0,0,0,0,0,0
	c0,3.1,2.5,5.6,5.6,5.6C69.3,34.2,71.8,31.7,71.8,28.6C71.8,28.6,71.8,28.6,71.8,28.6z"/>
<path class="st0" d="M81.5,31.6h5.4c0,2.2,1.8,3.8,4.8,3.8c2.3,0,3.9-1,3.9-2.6c0-2-2.2-2.2-4.8-2.5c-3.9-0.4-9.1-1-9.1-6.5
	c0-4.4,3.8-7.1,9.4-7.1s9.8,2.8,9.8,7.2h-5.6c0-1.9-1.7-3.1-4.2-3.1c-2.2,0-3.8,1-3.8,2.5c0,2,2.6,2.1,5.6,2.5
	c3.9,0.5,8.7,1.4,8.7,6.5c0,4.5-3.8,7.2-10,7.2S81.5,36.5,81.5,31.6z"/>
<path class="st0" d="M113.1,9.2h10l9.9,29.5h-7l-1.8-5.3h-12.3l-1.9,5.3h-7L113.1,9.2z M122.6,28.4l-4.4-13.3h-0.4l-4.5,13.3
	L122.6,28.4z"/>
<path class="st0" d="M135.2,9.2h6.1v29.5h-6.1V9.2z"/>
<path class="st0" d="M31.8,0.3c-3.8,0-6.8,3.1-6.8,6.8S28,14,31.8,14s6.8-3.1,6.8-6.8c0,0,0,0,0,0C38.6,3.4,35.5,0.3,31.8,0.3z
	 M31.8,10.4c-1.8,0-3.3-1.4-3.3-3.2c0-1.8,1.4-3.3,3.2-3.3c1.8,0,3.3,1.4,3.3,3.2c0,0,0,0,0,0C35,9,33.6,10.4,31.8,10.4z"/>
</svg>
